<svg xmlns="http://www.w3.org/2000/svg" viewBox="0 0 181.63 142.15"><defs><style>.cls-1{fill:#fff;}.cls-1,.cls-3,.cls-5{fill-rule:evenodd;}.cls-2,.cls-5{fill:#ed2025;}.cls-3,.cls-4{fill:#0b74b9;}.cls-6{fill:none;}</style></defs><g id="Layer_2" data-name="Layer 2"><g id="Layer_2-2" data-name="Layer 2"><g id="Layer_3" data-name="Layer 3"><path class="cls-1" d="M168.13,61a32.81,32.81,0,0,0-25.06-29h0a33,33,0,0,0-7.71-.92h-.88l-.61,0A39.08,39.08,0,0,0,61.74,19.56a32,32,0,0,0-18.48.05,31.66,31.66,0,0,0-22.51,29.7A31.84,31.84,0,0,0,31.84,111h81.22a7.07,7.07,0,0,0-2.57,5.46v5.13a7.09,7.09,0,0,0,7.09,7.09h3v2a7.09,7.09,0,0,0,7.09,7.09h5.12a7.1,7.1,0,0,0,4.58-1.68,7.07,7.07,0,0,0,7,6.07h5.13a7.09,7.09,0,0,0,7.09-7.08v-2.6a6.38,6.38,0,0,0,1.08.09h2.13a7.08,7.08,0,0,0,7.09-7.08v-2.14a7,7,0,0,0-1.42-4.24,7.06,7.06,0,0,0,2.61-5.48v-5.07a7.59,7.59,0,0,0-.12-1.27,7.09,7.09,0,0,0,5.66-6.94V98.2c0-.22,0-.43,0-.64s.22-.21.32-.33a7.08,7.08,0,0,0,5.68-5.72,7,7,0,0,0,1.88-4A26.73,26.73,0,0,0,168.13,61Z"/></g><rect class="cls-2" x="128.64" y="119.91" width="2.14" height="2.14"/><path class="cls-3" d="M133.75,108.08h-4v4.38h4Z"/><path class="cls-3" d="M161,108.55h-5.19v5.07H161Z"/><path class="cls-3" d="M122.71,116.46h-5.13v5.13h5.13Z"/><rect class="cls-4" x="127.63" y="125.54" width="5.13" height="5.13"/><path class="cls-5" d="M143.05,111h3.85v-3.85h-3.85Z"/><rect class="cls-4" x="140.49" y="119" width="5.13" height="5.13"/><path class="cls-5" d="M122.15,112.74l2.1,0,0-2.1-2.09,0C122.17,111.35,122.16,112,122.15,112.74Z"/><rect class="cls-2" x="148.65" y="116" width="6.04" height="6.06" transform="translate(30.02 268.6) rotate(-89)"/><path class="cls-3" d="M134.88,117.56H137v-2.14h-2.14Z"/><path class="cls-2" d="M149.46,129.94h-5.13v5.13h5.13v-5.13Z"/><path class="cls-3" d="M149.51,108.81h2.13v-2.13h-2.13Z"/><rect class="cls-2" x="157.63" y="123.34" width="2.14" height="2.14"/><path class="cls-6" d="M74.75,88.73,101.43,78l-4.7-9.14,26.42-11-5-9.3,23.3-9.73a25.86,25.86,0,0,0-6.07-.72h-.65L113.6,47l5,9.27L92.39,67.09l4.66,9L70.33,86.87,75.09,96l-19.66,7.93H64.5l15-6.06Z"/><path class="cls-4" d="M113.6,47l21.09-8.79a25.83,25.83,0,0,0-7.13,1.18c0-.09,0-.18,0-.27A32,32,0,0,0,65.3,28.82a24.76,24.76,0,0,0-37,25.84,24.76,24.76,0,0,0,3.58,49.25H55.43L75.09,96l-4.76-9.11L97.05,76.14l-4.66-9,26.25-10.87Z"/><path class="cls-2" d="M124.25,98.57v4.15h3.87v-1.87H130V92.58h6V90h5.84v6h5.41v5.52h2.74v-2h2.13v2h3.69V98.57H161v-6h7.56V90.27h4.06V86.65h1.81a19.62,19.62,0,0,0-13.25-21.11c0-.51.05-1,.05-1.55a25.85,25.85,0,0,0-19.77-25.12l-23.3,9.73,5,9.3-26.42,11,4.7,9.14L74.75,88.73l4.76,9.12-15,6.06h53.9V98.57Zm27.42-6.48h-3.95v-4.2h3.95Zm-8-20.57h5.28v5.33h-5.28ZM131,79.74h3.95v4.19H131ZM123.69,90h4v4.2h-4Z"/><path class="cls-2" d="M136,98.37v5.54h5.4V98.37Z"/><path class="cls-3" d="M166.49,100.34v-.24l-.34.24Z"/><path class="cls-3" d="M164.35,98.2v2.14h1.8l.34-.24V98.2Z"/><path class="cls-3" d="M130.66,101.66v2.13h2.14v-2.13Z"/></g></g></svg>