<svg xmlns="http://www.w3.org/2000/svg" viewBox="0 0 167.45 127.98"><defs><style>.cls-1,.cls-4{fill:#ed2025;}.cls-2,.cls-3{fill:#0b74b9;}.cls-2,.cls-4{fill-rule:evenodd;}.cls-5{fill:none;}</style></defs><g id="Layer_2" data-name="Layer 2"><g id="Layer_2-2" data-name="Layer 2"><rect class="cls-1" x="121.55" y="112.83" width="2.14" height="2.14"/><path class="cls-2" d="M126.66,101h-4v4.38h4Z"/><path class="cls-2" d="M153.86,101.46h-5.19v5.07h5.19Z"/><path class="cls-2" d="M115.62,109.38h-5.13v5.12h5.13Z"/><rect class="cls-3" x="120.54" y="118.45" width="5.13" height="5.13"/><path class="cls-4" d="M136,103.87h3.85V100H136Z"/><rect class="cls-3" x="133.4" y="111.91" width="5.13" height="5.13"/><path class="cls-4" d="M115.06,105.65l2.1,0c0-.72,0-1.39,0-2.1l-2.1,0C115.09,104.26,115.07,104.94,115.06,105.65Z"/><rect class="cls-1" x="141.56" y="108.91" width="6.04" height="6.06" transform="translate(30.14 254.55) rotate(-89)"/><path class="cls-2" d="M127.8,110.47h2.13v-2.13H127.8Z"/><path class="cls-1" d="M142.37,122.85h-5.12V128h5.12v-5.13Z"/><path class="cls-2" d="M142.42,101.73h2.14V99.59h-2.14Z"/><rect class="cls-1" x="150.54" y="116.26" width="2.14" height="2.14"/><path class="cls-5" d="M67.67,81.65,94.34,70.91l-4.69-9.13,26.41-11-5-9.29,23.3-9.74a25.86,25.86,0,0,0-6.07-.72h-.65l-21.09,8.8,5,9.26L85.3,60l4.66,9L63.24,79.78,68,88.89,48.35,96.83h9.07l15-6.07Z"/><path class="cls-3" d="M106.51,39.87l21.09-8.8a25.76,25.76,0,0,0-7.12,1.18V32A32,32,0,0,0,58.21,21.73a24.76,24.76,0,0,0-37,25.84,24.76,24.76,0,0,0,3.59,49.26H48.35L68,88.89l-4.76-9.11L90,69.05,85.3,60l26.25-10.88Z"/><path class="cls-1" d="M117.16,91.48v4.16H121V93.77h1.85V85.5h6V82.87h5.85v5.95h5.4v5.52h2.74v-2H145v2h3.68V91.48h5.19v-6h7.56V83.18h4.06V79.57h1.82A19.72,19.72,0,0,0,154,58.46c0-.52.05-1,.05-1.56a25.86,25.86,0,0,0-19.77-25.12L111,41.52l5,9.29-26.41,11,4.69,9.13L67.67,81.65l4.75,9.11-15,6.07h53.9V91.48ZM144.58,85h-4V80.81h4Zm-8-20.57h5.28v5.34h-5.28ZM123.9,72.65h3.95v4.19H123.9Zm-7.29,10.26h4V87.1h-4Z"/><path class="cls-1" d="M128.86,91.28v5.55h5.41V91.28Z"/><path class="cls-2" d="M159.4,93.25V93l-.33.24Z"/><path class="cls-2" d="M157.27,91.11v2.14h1.8l.33-.24v-1.9Z"/><path class="cls-2" d="M123.57,94.57v2.14h2.14V94.57Z"/></g></g></svg>