<svg id="Layer_2" data-name="Layer 2" xmlns="http://www.w3.org/2000/svg" viewBox="0 0 296.12 179.38"><defs><style>.cls-1,.cls-4{fill:#ed2025;}.cls-2,.cls-3{fill:#0b74b9;}.cls-2,.cls-4{fill-rule:evenodd;}.cls-5{fill:none;}</style></defs><rect class="cls-1" x="186.48" y="120.39" width="2.14" height="2.14"/><path class="cls-2" d="M191.59,108.56h-4v4.38h4Z"/><path class="cls-2" d="M218.79,109H213.6v5.07h5.19Z"/><path class="cls-2" d="M180.55,116.94h-5.13v5.13h5.13Z"/><rect class="cls-3" x="185.47" y="126.02" width="5.13" height="5.13"/><path class="cls-4" d="M200.89,111.44h3.85v-3.85h-3.85Z"/><rect class="cls-3" x="198.33" y="119.47" width="5.13" height="5.13"/><path class="cls-4" d="M180,113.22l2.1,0c0-.71,0-1.39,0-2.1l-2.1,0C180,111.82,180,112.5,180,113.22Z"/><rect class="cls-1" x="206.49" y="116.47" width="6.04" height="6.06" transform="translate(86.37 326.9) rotate(-89)"/><path class="cls-2" d="M192.72,118h2.14V115.9h-2.14Z"/><path class="cls-1" d="M207.3,130.42h-5.13v5.13h5.13v-5.13Z"/><path class="cls-3" d="M41.35,171.48H32.72L21.51,158.61h-7v12.87H7.27V132.94c6.1,0,12.2.05,18.31.05,9.07.06,13.85,6.11,13.85,12.76,0,5.28-2.42,10.61-9.73,12.09L41.35,171ZM14.53,139.76v12.31h11c4.61,0,6.59-3.08,6.59-6.16s-2-6.15-6.59-6.15Z"/><path class="cls-3" d="M82.15,152.46c-.12,9.94-6.22,19.9-19.74,19.9s-19.79-9.73-19.79-19.85,6.49-20.29,19.79-20.29S82.25,142.39,82.15,152.46Zm-32.39.16c.17,6.32,3.58,13.08,12.65,13.08S74.89,158.89,75,152.56c.11-6.48-3.52-13.74-12.59-13.74S49.6,146.13,49.76,152.62Z"/><path class="cls-3" d="M114.8,164.22H94.68l-3.3,7.26H83.52L100.78,133h7.92L126,171.48H118Zm-10.06-23.15-7.15,16.39h14.3Z"/><path class="cls-3" d="M164.28,151.9c.16,9.74-5.77,19.58-19.24,19.58H129.92V133H145C158.23,133,164.11,142.39,164.28,151.9Zm-27.16,12.59H145c8.74,0,12.2-6.37,12-12.64-.17-6-3.69-12-12-12h-7.92Z"/><path class="cls-1" d="M178,136.73v7.7h7.48v5.77H178v11.71c0,2.58,1.43,3.85,3.52,3.85a7.6,7.6,0,0,0,3.24-.83l1.87,5.72a15.07,15.07,0,0,1-5.55,1.16c-5.88.22-9.73-3.14-9.73-9.9V150.2h-5.06v-5.77h5.06v-7Z"/><path class="cls-1" d="M217.44,158c0,7.81-5.33,14.13-14.13,14.13s-14.07-6.32-14.07-14.13,5.39-14.13,14-14.13S217.44,150.2,217.44,158ZM196,158c0,4.13,2.47,8,7.36,8s7.37-3.84,7.37-8-2.86-8-7.37-8C198.47,149.93,196,153.88,196,158Z"/><path class="cls-1" d="M249,158c0,7.81-5.34,14.13-14.13,14.13s-14.08-6.32-14.08-14.13,5.39-14.13,14-14.13S249,150.2,249,158Zm-21.5,0c0,4.13,2.48,8,7.37,8s7.36-3.84,7.36-8-2.85-8-7.36-8C230,149.93,227.5,153.88,227.5,158Z"/><path class="cls-1" d="M260.27,133.05v38.43h-6.66V133.05Z"/><path class="cls-1" d="M283.85,151.57a9.14,9.14,0,0,0-6.71-2.41c-3.19,0-4.94,1-4.94,2.69s1.59,2.75,5.05,3c5.12.33,11.6,1.48,11.6,8.68,0,4.79-3.9,8.91-11.65,8.91-4.29,0-8.58-.71-12.54-4.84l3.3-4.78c1.93,2.14,6.33,3.74,9.35,3.79,2.53.06,4.89-1.26,4.89-3.24s-1.54-2.64-5.39-2.86c-5.11-.38-11.21-2.25-11.21-8.41s6.49-8.47,11.43-8.47c4.24,0,7.43.83,10.56,3.58Z"/><path class="cls-2" d="M207.35,109.29h2.14v-2.13h-2.14Z"/><rect class="cls-1" x="215.47" y="123.82" width="2.14" height="2.14"/><path class="cls-5" d="M132.6,89.21l26.67-10.73-4.7-9.14,26.42-11-5-9.3,23.3-9.73a25.86,25.86,0,0,0-6.07-.72h-.65l-21.09,8.79,5,9.27L150.23,67.57l4.66,9.05L128.17,87.35l4.76,9.11-19.66,7.93h9.07l15-6.06Z"/><path class="cls-3" d="M171.44,47.43l21.09-8.79a25.7,25.7,0,0,0-7.12,1.18v-.27A32,32,0,0,0,123.14,29.3,24.76,24.76,0,0,0,85.67,50.54a24.91,24.91,0,0,0,.43,4.6,24.76,24.76,0,0,0,3.59,49.25h23.58l19.66-7.93-4.76-9.11,26.72-10.73-4.66-9.05L176.48,56.7Z"/><path class="cls-1" d="M182.09,99.05v4.15H186v-1.87h1.85V93.06h6V90.44h5.84v5.94H205v5.53h2.74v-2h2.13v2h3.69V99.05h5.19v-6h7.56V90.74h4.06V87.13h1.82a21.75,21.75,0,0,0,.15-2.44A19.72,19.72,0,0,0,219,66c0-.51.05-1,.05-1.55a25.85,25.85,0,0,0-19.77-25.12L176,49.08l5,9.3-26.42,11,4.7,9.14L132.6,89.21l4.75,9.12-15,6.06h53.9V99.05Zm27.42-6.48h-3.95v-4.2h3.95Zm-8-20.57h5.28v5.33h-5.28Zm-12.68,8.22h3.95v4.19h-3.95Zm-7.3,10.25h3.95v4.19h-3.95Z"/><path class="cls-1" d="M193.79,98.85v5.54h5.41V98.85Z"/><path class="cls-2" d="M224.33,100.82v-.24l-.34.24Z"/><path class="cls-2" d="M222.19,98.68v2.14H224l.34-.24v-1.9Z"/><path class="cls-2" d="M188.5,102.14v2.13h2.14v-2.13Z"/></svg>